# MagicaVoxel @ Ephtracy

# group
o 

# material
mtllib crow.mtl
usemtl palette

# normals
vn -1 0 0
vn 1 0 0
vn 0 0 1
vn 0 0 -1
vn 0 -1 0
vn 0 1 0

# texcoords
vt 0.958984 0.5
vt 0.994141 0.5

# verts
v 0.5 0.6 0.9
v 0.5 0.6 0.2
v 0.5 1.5 0.9
v 0.5 1.5 0.2
v 0.7 1.1 0.2
v 0.7 1.1 -0.3
v 0.7 1.3 0.2
v 0.7 1.3 -0.3
v 0.8 1.1 1.3
v 0.8 1.1 0.9
v 0.8 1.1 -0.3
v 0.8 1.1 -0.5
v 0.8 1.3 1.3
v 0.8 1.3 0.9
v 0.8 1.3 -0.3
v 0.8 1.3 -0.5
v 0.9 1.1 1.5
v 0.9 1.1 1.3
v 0.9 1.3 1.5
v 0.9 1.3 1.3
v 1.1 1.5 0.7
v 1.1 1.5 0.4
v 1.1 1.6 0.7
v 1.1 1.6 0.4
v 1.2 0 0.7
v 1.2 0 0.6
v 1.2 0 0.3
v 1.2 0 0.2
v 1.2 0.6 0.7
v 1.2 0.6 0.6
v 1.2 0.6 0.3
v 1.2 0.6 0.2
v 1.2 0.7 0.8
v 1.2 0.7 0.3
v 1.2 0.8 0.8
v 1.2 0.8 0.3
v 1.2 1.5 0.4
v 1.2 1.5 0.3
v 1.2 1.6 0.7
v 1.2 1.6 0.4
v 1.2 2.3 0.7
v 1.2 2.3 0.3
v 0.6 0.7 0.8
v 0.6 0.7 0.3
v 0.6 0.8 0.8
v 0.6 0.8 0.3
v 0.9 1.1 0.2
v 0.9 1.1 -0.5
v 0.9 1.3 0.2
v 0.9 1.3 -0.5
v 1 1.1 1.5
v 1 1.1 0.9
v 1 1.3 1.5
v 1 1.3 0.9
v 1.3 0.1 0.7
v 1.3 0.1 0.6
v 1.3 0.1 0.3
v 1.3 0.1 0.2
v 1.3 0.6 0.9
v 1.3 0.6 0.7
v 1.3 0.6 0.6
v 1.3 0.6 0.3
v 1.3 1.4 0.7
v 1.3 1.4 0.3
v 1.3 1.5 0.9
v 1.3 1.5 0.7
v 1.3 1.5 0.3
v 1.3 1.5 0.2
v 1.4 1.4 0.7
v 1.4 1.4 0.3
v 1.4 2 0.7
v 1.4 2 0.3
v 1.5 0 0.7
v 1.5 0 0.6
v 1.5 0 0.3
v 1.5 0 0.2
v 1.5 0.1 0.7
v 1.5 0.1 0.6
v 1.5 0.1 0.3
v 1.5 0.1 0.2
v 1.5 2 0.7
v 1.5 2 0.6
v 1.5 2 0.4
v 1.5 2 0.3
v 1.5 2.1 0.7
v 1.5 2.1 0.6
v 1.5 2.1 0.4
v 1.5 2.1 0.3
v 1.5 2.2 0.7
v 1.5 2.2 0.6
v 1.5 2.2 0.4
v 1.5 2.2 0.3
v 1.5 2.3 0.7
v 1.5 2.3 0.3
v 1.6 2 0.6
v 1.6 2 0.4
v 1.6 2.1 0.7
v 1.6 2.1 0.6
v 1.6 2.1 0.4
v 1.6 2.1 0.3
v 1.6 2.2 0.7
v 1.6 2.2 0.6
v 1.6 2.2 0.4
v 1.6 2.2 0.3
v 0.9 1.1 1.5
v 0.9 1.3 1.5
v 1 1.1 1.5
v 1 1.3 1.5
v 0.8 1.1 1.3
v 0.8 1.3 1.3
v 0.9 1.1 1.3
v 0.9 1.3 1.3
v 0.5 0.6 0.9
v 0.5 1.5 0.9
v 0.8 1.1 0.9
v 0.8 1.3 0.9
v 1 1.1 0.9
v 1 1.3 0.9
v 1.3 0.6 0.9
v 1.3 1.5 0.9
v 1.1 1.5 0.7
v 1.1 1.6 0.7
v 1.2 0 0.7
v 1.2 0.6 0.7
v 1.2 1.6 0.7
v 1.2 2.3 0.7
v 1.3 0.1 0.7
v 1.3 0.6 0.7
v 1.3 1.4 0.7
v 1.3 1.5 0.7
v 1.3 1.6 0.7
v 1.4 1.4 0.7
v 1.4 2 0.7
v 1.5 0 0.7
v 1.5 0.1 0.7
v 1.5 2 0.7
v 1.5 2.1 0.7
v 1.5 2.2 0.7
v 1.5 2.3 0.7
v 1.6 2.1 0.7
v 1.6 2.2 0.7
v 1.5 2 0.6
v 1.5 2.1 0.6
v 1.6 2 0.6
v 1.6 2.1 0.6
v 1.5 2.1 0.4
v 1.5 2.2 0.4
v 1.6 2.1 0.4
v 1.6 2.2 0.4
v 0.6 0.7 0.3
v 0.6 0.8 0.3
v 1.2 0 0.3
v 1.2 0.6 0.3
v 1.2 0.7 0.3
v 1.2 0.8 0.3
v 1.3 0.1 0.3
v 1.3 0.6 0.3
v 1.5 0 0.3
v 1.5 0.1 0.3
v 0.6 0.7 0.8
v 0.6 0.8 0.8
v 1.2 0.7 0.8
v 1.2 0.8 0.8
v 1.2 0 0.6
v 1.2 0.6 0.6
v 1.3 0.1 0.6
v 1.3 0.6 0.6
v 1.5 0 0.6
v 1.5 0.1 0.6
v 1.5 2.1 0.6
v 1.5 2.2 0.6
v 1.6 2.1 0.6
v 1.6 2.2 0.6
v 1.1 1.5 0.4
v 1.1 1.6 0.4
v 1.2 1.5 0.4
v 1.2 1.6 0.4
v 1.5 2 0.4
v 1.5 2.1 0.4
v 1.6 2 0.4
v 1.6 2.1 0.4
v 1.2 1.5 0.3
v 1.2 2.3 0.3
v 1.3 1.4 0.3
v 1.3 1.5 0.3
v 1.4 1.4 0.3
v 1.4 2 0.3
v 1.5 2 0.3
v 1.5 2.1 0.3
v 1.5 2.2 0.3
v 1.5 2.3 0.3
v 1.6 2.1 0.3
v 1.6 2.2 0.3
v 0.5 0.6 0.2
v 0.5 1.5 0.2
v 0.7 1.1 0.2
v 0.7 1.3 0.2
v 0.9 1.1 0.2
v 0.9 1.3 0.2
v 1.2 0 0.2
v 1.2 0.6 0.2
v 1.3 0.1 0.2
v 1.3 1.5 0.2
v 1.5 0 0.2
v 1.5 0.1 0.2
v 0.7 1.1 -0.3
v 0.7 1.3 -0.3
v 0.8 1.1 -0.3
v 0.8 1.3 -0.3
v 0.8 1.1 -0.5
v 0.8 1.3 -0.5
v 0.9 1.1 -0.5
v 0.9 1.3 -0.5
v 1.2 0 0.7
v 1.5 0 0.7
v 1.2 0 0.6
v 1.5 0 0.6
v 1.2 0 0.3
v 1.5 0 0.3
v 1.2 0 0.2
v 1.5 0 0.2
v 0.5 0.6 0.9
v 1.3 0.6 0.9
v 1.2 0.6 0.7
v 1.3 0.6 0.7
v 1.2 0.6 0.6
v 1.3 0.6 0.6
v 1.2 0.6 0.3
v 1.3 0.6 0.3
v 0.5 0.6 0.2
v 1.2 0.6 0.2
v 0.6 0.8 0.8
v 1.2 0.8 0.8
v 0.6 0.8 0.3
v 1.2 0.8 0.3
v 0.9 1.1 1.5
v 1 1.1 1.5
v 0.8 1.1 1.3
v 0.9 1.1 1.3
v 0.8 1.1 0.9
v 1 1.1 0.9
v 0.7 1.1 0.2
v 0.9 1.1 0.2
v 0.7 1.1 -0.3
v 0.8 1.1 -0.3
v 0.8 1.1 -0.5
v 0.9 1.1 -0.5
v 1.3 1.4 0.7
v 1.4 1.4 0.7
v 1.3 1.4 0.3
v 1.4 1.4 0.3
v 1.4 2 0.7
v 1.5 2 0.7
v 1.5 2 0.6
v 1.6 2 0.6
v 1.5 2 0.4
v 1.6 2 0.4
v 1.4 2 0.3
v 1.5 2 0.3
v 1.5 2.1 0.7
v 1.6 2.1 0.7
v 1.5 2.1 0.6
v 1.6 2.1 0.6
v 1.5 2.1 0.4
v 1.6 2.1 0.4
v 1.5 2.1 0.3
v 1.6 2.1 0.3
v 1.3 0.1 0.7
v 1.5 0.1 0.7
v 1.3 0.1 0.6
v 1.5 0.1 0.6
v 1.3 0.1 0.3
v 1.5 0.1 0.3
v 1.3 0.1 0.2
v 1.5 0.1 0.2
v 0.6 0.7 0.8
v 1.2 0.7 0.8
v 0.6 0.7 0.3
v 1.2 0.7 0.3
v 0.9 1.3 1.5
v 1 1.3 1.5
v 0.8 1.3 1.3
v 0.9 1.3 1.3
v 0.8 1.3 0.9
v 1 1.3 0.9
v 0.7 1.3 0.2
v 0.9 1.3 0.2
v 0.7 1.3 -0.3
v 0.8 1.3 -0.3
v 0.8 1.3 -0.5
v 0.9 1.3 -0.5
v 0.5 1.5 0.9
v 1.3 1.5 0.9
v 1.1 1.5 0.7
v 1.3 1.5 0.7
v 1.1 1.5 0.4
v 1.2 1.5 0.4
v 1.2 1.5 0.3
v 1.3 1.5 0.3
v 0.5 1.5 0.2
v 1.3 1.5 0.2
v 1.1 1.6 0.7
v 1.2 1.6 0.7
v 1.1 1.6 0.4
v 1.2 1.6 0.4
v 1.5 2.1 0.6
v 1.6 2.1 0.6
v 1.5 2.1 0.4
v 1.6 2.1 0.4
v 1.5 2.2 0.7
v 1.6 2.2 0.7
v 1.5 2.2 0.6
v 1.6 2.2 0.6
v 1.5 2.2 0.4
v 1.6 2.2 0.4
v 1.5 2.2 0.3
v 1.6 2.2 0.3
v 1.2 2.3 0.7
v 1.5 2.3 0.7
v 1.2 2.3 0.3
v 1.5 2.3 0.3

# faces
f 3/2/1 2/2/1 1/2/1
f 4/2/1 2/2/1 3/2/1
f 7/1/1 6/1/1 5/1/1
f 8/1/1 6/1/1 7/1/1
f 13/1/1 10/1/1 9/1/1
f 14/1/1 10/1/1 13/1/1
f 15/1/1 12/1/1 11/1/1
f 16/1/1 12/1/1 15/1/1
f 19/1/1 18/1/1 17/1/1
f 20/1/1 18/1/1 19/1/1
f 23/2/1 22/2/1 21/2/1
f 24/2/1 22/2/1 23/2/1
f 29/2/1 26/2/1 25/2/1
f 30/2/1 26/2/1 29/2/1
f 31/2/1 28/2/1 27/2/1
f 32/2/1 28/2/1 31/2/1
f 35/2/1 34/2/1 33/2/1
f 36/2/1 34/2/1 35/2/1
f 40/1/1 38/1/1 37/1/1
f 41/1/1 40/1/1 39/1/1
f 42/1/1 38/1/1 40/1/1
f 42/1/1 40/1/1 41/1/1
f 43/2/2 44/2/2 45/2/2
f 45/2/2 44/2/2 46/2/2
f 47/1/2 48/1/2 49/1/2
f 49/1/2 48/1/2 50/1/2
f 51/1/2 52/1/2 53/1/2
f 53/1/2 52/1/2 54/1/2
f 55/2/2 56/2/2 60/2/2
f 60/2/2 56/2/2 61/2/2
f 57/2/2 58/2/2 62/2/2
f 60/2/2 61/2/2 63/2/2
f 61/2/2 62/2/2 63/2/2
f 59/2/2 60/2/2 63/2/2
f 62/2/2 58/2/2 64/2/2
f 63/2/2 62/2/2 64/2/2
f 59/2/2 63/2/2 65/2/2
f 65/2/2 63/2/2 66/2/2
f 64/2/2 58/2/2 67/2/2
f 67/2/2 58/2/2 68/2/2
f 69/1/2 70/1/2 71/1/2
f 71/1/2 70/1/2 72/1/2
f 73/2/2 74/2/2 77/2/2
f 77/2/2 74/2/2 78/2/2
f 75/2/2 76/2/2 79/2/2
f 79/2/2 76/2/2 80/2/2
f 81/1/2 82/1/2 85/1/2
f 85/1/2 82/1/2 86/1/2
f 83/1/2 84/1/2 87/1/2
f 87/1/2 84/1/2 88/1/2
f 86/1/2 87/1/2 90/1/2
f 90/1/2 87/1/2 91/1/2
f 89/1/2 90/1/2 93/1/2
f 91/1/2 92/1/2 93/1/2
f 90/1/2 91/1/2 93/1/2
f 93/1/2 92/1/2 94/1/2
f 95/2/2 96/2/2 98/2/2
f 98/2/2 96/2/2 99/2/2
f 97/2/2 98/2/2 101/2/2
f 101/2/2 98/2/2 102/2/2
f 99/2/2 100/2/2 103/2/2
f 103/2/2 100/2/2 104/2/2
f 107/1/3 106/1/3 105/1/3
f 108/1/3 106/1/3 107/1/3
f 111/1/3 110/1/3 109/1/3
f 112/1/3 110/1/3 111/1/3
f 115/2/3 114/2/3 113/2/3
f 116/2/3 114/2/3 115/2/3
f 117/2/3 115/2/3 113/2/3
f 118/2/3 114/2/3 116/2/3
f 119/2/3 117/2/3 113/2/3
f 119/2/3 118/2/3 117/2/3
f 120/2/3 114/2/3 118/2/3
f 120/2/3 118/2/3 119/2/3
f 125/2/3 122/2/3 121/2/3
f 127/2/3 124/2/3 123/2/3
f 128/2/3 124/2/3 127/2/3
f 130/2/3 125/2/3 121/2/3
f 131/1/3 126/1/3 125/1/3
f 131/2/3 125/2/3 130/2/3
f 132/1/3 130/1/3 129/1/3
f 132/1/3 131/1/3 130/1/3
f 133/1/3 126/1/3 131/1/3
f 133/1/3 131/1/3 132/1/3
f 134/2/3 127/2/3 123/2/3
f 135/2/3 127/2/3 134/2/3
f 136/1/3 126/1/3 133/1/3
f 137/1/3 126/1/3 136/1/3
f 138/1/3 126/1/3 137/1/3
f 139/1/3 126/1/3 138/1/3
f 140/2/3 138/2/3 137/2/3
f 141/2/3 138/2/3 140/2/3
f 144/2/3 143/2/3 142/2/3
f 145/2/3 143/2/3 144/2/3
f 148/2/3 147/2/3 146/2/3
f 149/2/3 147/2/3 148/2/3
f 154/2/3 151/2/3 150/2/3
f 155/2/3 151/2/3 154/2/3
f 156/2/3 153/2/3 152/2/3
f 157/2/3 153/2/3 156/2/3
f 158/2/3 156/2/3 152/2/3
f 159/2/3 156/2/3 158/2/3
f 160/2/4 161/2/4 162/2/4
f 162/2/4 161/2/4 163/2/4
f 164/2/4 165/2/4 166/2/4
f 166/2/4 165/2/4 167/2/4
f 164/2/4 166/2/4 168/2/4
f 168/2/4 166/2/4 169/2/4
f 170/2/4 171/2/4 172/2/4
f 172/2/4 171/2/4 173/2/4
f 174/2/4 175/2/4 176/2/4
f 176/2/4 175/2/4 177/2/4
f 178/2/4 179/2/4 180/2/4
f 180/2/4 179/2/4 181/2/4
f 182/1/4 183/1/4 185/1/4
f 184/1/4 185/1/4 186/1/4
f 185/1/4 183/1/4 187/1/4
f 186/1/4 185/1/4 187/1/4
f 187/1/4 183/1/4 188/1/4
f 188/1/4 183/1/4 189/1/4
f 189/1/4 183/1/4 190/1/4
f 190/1/4 183/1/4 191/1/4
f 189/2/4 190/2/4 192/2/4
f 192/2/4 190/2/4 193/2/4
f 194/2/4 195/2/4 196/2/4
f 196/2/4 195/2/4 197/2/4
f 194/2/4 196/2/4 198/2/4
f 197/2/4 195/2/4 199/2/4
f 194/2/4 198/2/4 201/2/4
f 198/2/4 199/2/4 201/2/4
f 200/2/4 201/2/4 202/2/4
f 199/2/4 195/2/4 203/2/4
f 202/2/4 201/2/4 203/2/4
f 201/2/4 199/2/4 203/2/4
f 200/2/4 202/2/4 204/2/4
f 204/2/4 202/2/4 205/2/4
f 206/1/4 207/1/4 208/1/4
f 208/1/4 207/1/4 209/1/4
f 210/1/4 211/1/4 212/1/4
f 212/1/4 211/1/4 213/1/4
f 216/2/5 215/2/5 214/2/5
f 217/2/5 215/2/5 216/2/5
f 220/2/5 219/2/5 218/2/5
f 221/2/5 219/2/5 220/2/5
f 224/2/5 223/2/5 222/2/5
f 225/2/5 223/2/5 224/2/5
f 226/2/5 224/2/5 222/2/5
f 228/2/5 226/2/5 222/2/5
f 228/2/5 227/2/5 226/2/5
f 229/2/5 227/2/5 228/2/5
f 230/2/5 228/2/5 222/2/5
f 231/2/5 228/2/5 230/2/5
f 234/2/5 233/2/5 232/2/5
f 235/2/5 233/2/5 234/2/5
f 239/1/5 237/1/5 236/1/5
f 240/1/5 239/1/5 238/1/5
f 241/1/5 237/1/5 239/1/5
f 241/1/5 239/1/5 240/1/5
f 244/1/5 243/1/5 242/1/5
f 245/1/5 243/1/5 244/1/5
f 246/1/5 243/1/5 245/1/5
f 247/1/5 243/1/5 246/1/5
f 250/1/5 249/1/5 248/1/5
f 251/1/5 249/1/5 250/1/5
f 254/1/5 253/1/5 252/1/5
f 256/1/5 254/1/5 252/1/5
f 256/2/5 255/2/5 254/2/5
f 257/2/5 255/2/5 256/2/5
f 258/1/5 256/1/5 252/1/5
f 259/1/5 256/1/5 258/1/5
f 262/2/5 261/2/5 260/2/5
f 263/2/5 261/2/5 262/2/5
f 266/2/5 265/2/5 264/2/5
f 267/2/5 265/2/5 266/2/5
f 268/2/6 269/2/6 270/2/6
f 270/2/6 269/2/6 271/2/6
f 272/2/6 273/2/6 274/2/6
f 274/2/6 273/2/6 275/2/6
f 276/2/6 277/2/6 278/2/6
f 278/2/6 277/2/6 279/2/6
f 280/1/6 281/1/6 283/1/6
f 282/1/6 283/1/6 284/1/6
f 283/1/6 281/1/6 285/1/6
f 284/1/6 283/1/6 285/1/6
f 286/1/6 287/1/6 288/1/6
f 288/1/6 287/1/6 289/1/6
f 289/1/6 287/1/6 290/1/6
f 290/1/6 287/1/6 291/1/6
f 292/2/6 293/2/6 294/2/6
f 294/2/6 293/2/6 295/2/6
f 292/2/6 294/2/6 296/2/6
f 296/2/6 297/2/6 298/2/6
f 292/2/6 296/2/6 300/2/6
f 298/2/6 299/2/6 300/2/6
f 296/2/6 298/2/6 300/2/6
f 300/2/6 299/2/6 301/2/6
f 302/2/6 303/2/6 304/2/6
f 304/2/6 303/2/6 305/2/6
f 306/2/6 307/2/6 308/2/6
f 308/2/6 307/2/6 309/2/6
f 310/2/6 311/2/6 312/2/6
f 312/2/6 311/2/6 313/2/6
f 314/2/6 315/2/6 316/2/6
f 316/2/6 315/2/6 317/2/6
f 318/1/6 319/1/6 320/1/6
f 320/1/6 319/1/6 321/1/6
