# MagicaVoxel @ Ephtracy

# group
o 

# material
mtllib snake.mtl
usemtl palette

# normals
vn -1 0 0
vn 1 0 0
vn 0 0 1
vn 0 0 -1
vn 0 -1 0
vn 0 1 0

# texcoords
vt 0.880859 0.5
vt 0.994141 0.5

# verts
v -0.5 0 2.23517e-08
v -0.5 0 -0.3
v -0.5 0.1 2.23517e-08
v -0.5 0.1 -0.3
v -0.2 0.1 2.23517e-08
v -0.2 0.1 -0.3
v -0.2 0.2 2.23517e-08
v -0.2 0.2 -0.3
v 1.5 0.2 2.23517e-08
v 1.5 0.2 -0.3
v 1.5 0.3 2.23517e-08
v 1.5 0.3 -0.3
v 1.7 0 2.23517e-08
v 1.7 0 -0.3
v 1.7 0.1 2.23517e-08
v 1.7 0.1 -0.1
v 1.7 0.1 -0.2
v 1.7 0.1 -0.3
v 1.7 0.2 2.23517e-08
v 1.7 0.2 -0.1
v 1.7 0.2 -0.2
v 1.7 0.2 -0.3
v 1.7 0.3 2.23517e-08
v 1.7 0.3 -0.3
v 1.8 0.1 2.23517e-08
v 1.8 0.1 -0.1
v 1.8 0.1 -0.2
v 1.8 0.1 -0.3
v 1.8 0.2 2.23517e-08
v 1.8 0.2 -0.1
v 1.8 0.2 -0.2
v 1.8 0.2 -0.3
v -0.5 0 2.23517e-08
v -0.5 0.1 2.23517e-08
v -0.2 0.1 2.23517e-08
v -0.2 0.2 2.23517e-08
v 1.5 0.2 2.23517e-08
v 1.5 0.3 2.23517e-08
v 1.7 0 2.23517e-08
v 1.7 0.1 2.23517e-08
v 1.7 0.2 2.23517e-08
v 1.7 0.3 2.23517e-08
v 1.8 0.1 2.23517e-08
v 1.8 0.2 2.23517e-08
v 1.7 0.1 -0.2
v 1.7 0.2 -0.2
v 1.8 0.1 -0.2
v 1.8 0.2 -0.2
v 1.7 0.1 -0.1
v 1.7 0.2 -0.1
v 1.8 0.1 -0.1
v 1.8 0.2 -0.1
v -0.5 0 -0.3
v -0.5 0.1 -0.3
v -0.2 0.1 -0.3
v -0.2 0.2 -0.3
v 1.5 0.2 -0.3
v 1.5 0.3 -0.3
v 1.7 0 -0.3
v 1.7 0.1 -0.3
v 1.7 0.2 -0.3
v 1.7 0.3 -0.3
v 1.8 0.1 -0.3
v 1.8 0.2 -0.3
v -0.5 0 2.23517e-08
v 1.7 0 2.23517e-08
v -0.5 0 -0.3
v 1.7 0 -0.3
v 1.7 0.1 2.23517e-08
v 1.8 0.1 2.23517e-08
v 1.7 0.1 -0.1
v 1.8 0.1 -0.1
v 1.7 0.1 -0.2
v 1.8 0.1 -0.2
v 1.7 0.1 -0.3
v 1.8 0.1 -0.3
v -0.5 0.1 2.23517e-08
v -0.2 0.1 2.23517e-08
v -0.5 0.1 -0.3
v -0.2 0.1 -0.3
v -0.2 0.2 2.23517e-08
v 1.5 0.2 2.23517e-08
v 1.7 0.2 2.23517e-08
v 1.8 0.2 2.23517e-08
v 1.7 0.2 -0.1
v 1.8 0.2 -0.1
v 1.7 0.2 -0.2
v 1.8 0.2 -0.2
v -0.2 0.2 -0.3
v 1.5 0.2 -0.3
v 1.7 0.2 -0.3
v 1.8 0.2 -0.3
v 1.5 0.3 2.23517e-08
v 1.7 0.3 2.23517e-08
v 1.5 0.3 -0.3
v 1.7 0.3 -0.3

# faces
f 3/1/1 2/1/1 1/1/1
f 4/1/1 2/1/1 3/1/1
f 7/1/1 6/1/1 5/1/1
f 8/1/1 6/1/1 7/1/1
f 11/1/1 10/1/1 9/1/1
f 12/1/1 10/1/1 11/1/1
f 13/1/2 14/1/2 15/1/2
f 15/1/2 14/1/2 16/1/2
f 16/1/2 14/1/2 17/1/2
f 17/1/2 14/1/2 18/1/2
f 16/1/2 17/1/2 20/1/2
f 20/1/2 17/1/2 21/1/2
f 19/1/2 20/1/2 23/1/2
f 21/1/2 22/1/2 23/1/2
f 20/1/2 21/1/2 23/1/2
f 23/1/2 22/1/2 24/1/2
f 25/2/2 26/2/2 29/2/2
f 29/2/2 26/2/2 30/2/2
f 27/2/2 28/2/2 31/2/2
f 31/2/2 28/2/2 32/2/2
f 35/1/3 34/1/3 33/1/3
f 37/1/3 36/1/3 35/1/3
f 39/1/3 35/1/3 33/1/3
f 39/1/3 38/1/3 37/1/3
f 39/1/3 37/1/3 35/1/3
f 40/1/3 38/1/3 39/1/3
f 41/1/3 38/1/3 40/1/3
f 42/1/3 38/1/3 41/1/3
f 43/2/3 41/2/3 40/2/3
f 44/2/3 41/2/3 43/2/3
f 47/2/3 46/2/3 45/2/3
f 48/2/3 46/2/3 47/2/3
f 49/2/4 50/2/4 51/2/4
f 51/2/4 50/2/4 52/2/4
f 53/1/4 54/1/4 55/1/4
f 55/1/4 56/1/4 57/1/4
f 53/1/4 55/1/4 59/1/4
f 57/1/4 58/1/4 59/1/4
f 55/1/4 57/1/4 59/1/4
f 59/1/4 58/1/4 60/1/4
f 60/1/4 58/1/4 61/1/4
f 61/1/4 58/1/4 62/1/4
f 60/2/4 61/2/4 63/2/4
f 63/2/4 61/2/4 64/2/4
f 67/1/5 66/1/5 65/1/5
f 68/1/5 66/1/5 67/1/5
f 71/2/5 70/2/5 69/2/5
f 72/2/5 70/2/5 71/2/5
f 75/2/5 74/2/5 73/2/5
f 76/2/5 74/2/5 75/2/5
f 77/1/6 78/1/6 79/1/6
f 79/1/6 78/1/6 80/1/6
f 83/2/6 84/2/6 85/2/6
f 85/2/6 84/2/6 86/2/6
f 81/1/6 82/1/6 89/1/6
f 89/1/6 82/1/6 90/1/6
f 87/2/6 88/2/6 91/2/6
f 91/2/6 88/2/6 92/2/6
f 93/1/6 94/1/6 95/1/6
f 95/1/6 94/1/6 96/1/6
